<?xml version="1.0" standalone="no"?>
<!DOCTYPE svg PUBLIC "-//W3C//DTD SVG 20010904//EN"
 "http://www.w3.org/TR/2001/REC-SVG-20010904/DTD/svg10.dtd">
<svg version="1.0" xmlns="http://www.w3.org/2000/svg"
 width="512.000000pt" height="512.000000pt" viewBox="0 0 512.000000 512.000000"
 preserveAspectRatio="xMidYMid meet">

<g transform="translate(0.000000,512.000000) scale(0.100000,-0.100000)"
fill="#000000" stroke="none">
<path d="M820 3980 c-24 -24 -27 -87 -6 -116 14 -19 48 -19 1898 -24 1772 -5
1887 -6 1943 -23 144 -43 239 -138 282 -282 16 -55 18 -144 23 -1143 5 -1058
5 -1084 24 -1098 26 -19 86 -18 114 2 l22 15 0 1160 c0 637 -4 1167 -8 1177
-76 157 -87 174 -141 224 -61 57 -141 101 -212 117 -29 7 -712 11 -1981 11
-1925 0 -1938 0 -1958 -20z"/>
<path d="M500 3660 c-24 -24 -27 -87 -6 -116 14 -19 48 -19 1898 -24 1772 -5
1887 -6 1943 -23 144 -43 239 -138 282 -282 16 -55 18 -144 23 -1143 5 -1058
5 -1084 24 -1098 29 -21 92 -18 116 6 20 20 20 29 18 1183 l-3 1164 -42 85
c-66 132 -182 227 -314 257 -29 7 -712 11 -1981 11 -1925 0 -1938 0 -1958 -20z"/>
<path d="M339 3341 c-136 -44 -237 -130 -290 -248 -17 -38 -35 -76 -40 -85 -5
-11 -9 -450 -9 -1089 l0 -1071 39 -84 c54 -115 120 -182 230 -237 l84 -42
1851 -3 c1383 -2 1865 0 1906 9 89 18 160 58 230 129 68 68 103 127 126 213
21 79 20 2110 -1 2180 -50 166 -176 290 -338 333 -43 11 -362 14 -1892 13
-1735 0 -1843 -1 -1896 -18z m1276 -333 c-266 -220 -438 -538 -486 -895 -17
-125 -6 -393 20 -507 57 -247 171 -463 333 -632 45 -47 104 -101 131 -121 28
-20 45 -39 40 -44 -5 -5 -162 -8 -349 -7 l-339 3 -7 67 c-29 295 -270 537
-564 566 l-69 7 0 475 0 475 61 7 c147 16 275 77 379 183 112 113 180 252 192
396 l6 69 351 0 351 -1 -50 -41z m1907 -31 c24 -211 159 -409 343 -504 91 -47
144 -63 230 -72 l60 -6 0 -475 0 -475 -67 -7 c-295 -29 -537 -271 -566 -566
l-7 -67 -339 -3 c-187 -1 -344 2 -349 7 -5 5 12 24 40 44 121 89 272 274 351
433 41 81 96 241 118 344 27 122 27 458 0 580 -72 330 -229 596 -471 798 l-50
41 350 -2 350 -2 7 -68z m-1147 -122 c23 -23 25 -31 25 -130 0 -103 1 -105 23
-105 68 0 278 -82 290 -113 8 -21 -53 -219 -74 -242 -19 -20 -20 -20 -52 -1
-199 119 -308 141 -424 85 -86 -42 -93 -131 -15 -201 20 -18 78 -51 127 -72
283 -121 387 -192 440 -299 69 -142 26 -323 -104 -438 -44 -40 -171 -109 -198
-109 -10 0 -13 -27 -13 -110 0 -104 -1 -112 -25 -135 -23 -24 -31 -25 -133
-25 -153 0 -156 2 -160 149 l-4 111 -47 0 c-55 0 -137 22 -202 55 -73 37 -73
38 -39 160 34 121 45 145 64 145 7 0 47 -16 89 -35 129 -60 233 -76 337 -54
75 16 102 43 107 110 8 94 -47 148 -217 215 -243 95 -370 189 -416 310 -25 67
-16 175 22 244 43 81 123 154 220 202 l84 41 0 109 c0 102 1 110 25 133 23 24
31 25 135 25 104 0 112 -1 135 -25z"/>
</g>
</svg>
